<svg width="1238" height="1753" xmlns="http://www.w3.org/2000/svg" xmlns:xlink="http://www.w3.org/1999/xlink" xml:space="preserve" overflow="hidden"><defs><clipPath id="clip0"><rect x="1581" y="155" width="1238" height="1753"/></clipPath></defs><g clip-path="url(#clip0)" transform="translate(-1581 -155)"><path d="M2715.83 1908 1684.17 1908C1627.17 1908 1581 1861.85 1581 1804.88L1581 258.118C1581 201.145 1627.17 155 1684.17 155L2715.83 155C2772.83 155 2819 201.145 2819 258.118L2819 1804.88C2819 1861.85 2772.83 1908 2715.83 1908Z" fill="#00BFA5" fill-rule="evenodd"/><path d="M2612.44 980 1787.56 980C1759.1 980 1736 956.876 1736 928.385L1736 360.615C1736 332.124 1759.1 309 1787.56 309L2612.44 309C2640.9 309 2664 332.124 2664 360.615L2664 928.385C2664 956.876 2640.9 980 2612.44 980Z" fill="#E0F2F1" fill-rule="evenodd"/><path d="M1916.36 464C1873.64 464 1839 498.698 1839 541.5 1839 584.301 1873.64 619 1916.36 619 1959.08 619 1993.71 584.301 1993.71 541.5 1993.71 498.698 1959.08 464 1916.36 464ZM2483.64 464C2440.92 464 2406.29 498.698 2406.29 541.5 2406.29 584.301 2440.92 619 2483.64 619 2526.36 619 2561 584.301 2561 541.5 2561 498.698 2526.36 464 2483.64 464Z" fill="#212121" fill-rule="evenodd"/><path d="M2329 670C2329 741.259 2271.26 799 2200 799 2128.74 799 2071 741.259 2071 670" stroke="#212121" stroke-width="51.5625" stroke-miterlimit="8" fill="none" fill-rule="evenodd"/><path d="M1736 1083 2354.67 1083 2354.67 1186 1736 1186ZM2612.44 1083C2583.97 1083 2560.89 1106.06 2560.89 1134.5 2560.89 1162.94 2583.97 1186 2612.44 1186 2640.92 1186 2664 1162.94 2664 1134.5 2664 1106.06 2640.92 1083 2612.44 1083Z" fill="#212121" fill-rule="evenodd"/><path d="M2664.5 1341C2636.06 1341 2613 1364.06 2613 1392.5 2613 1420.94 2636.06 1444 2664.5 1444 2692.94 1444 2716 1420.94 2716 1392.5 2716 1364.06 2692.94 1341 2664.5 1341Z" fill="#76FF03" fill-rule="evenodd"/><path d="M1839 1289 1942 1289 1942 1598 1839 1598Z" fill="#FFEA00" fill-rule="evenodd"/><path d="M1736 1495 1736 1392 2045 1392 2045 1495Z" fill="#FFEA00" fill-rule="evenodd"/><path d="M1890.8 1805 1787.6 1805C1759.12 1805 1736 1781.93 1736 1753.5L1736 1753.5C1736 1725.07 1759.12 1702 1787.6 1702L1890.8 1702C1919.28 1702 1942.4 1725.07 1942.4 1753.5L1942.4 1753.5C1942.4 1781.93 1919.28 1805 1890.8 1805ZM2200.4 1805 2097.2 1805C2068.72 1805 2045.6 1781.93 2045.6 1753.5L2045.6 1753.5C2045.6 1725.07 2068.72 1702 2097.2 1702L2200.4 1702C2228.88 1702 2252 1725.07 2252 1753.5L2252 1753.5C2252 1781.93 2228.88 1805 2200.4 1805Z" fill="#212121" fill-rule="evenodd"/><path d="M2535 1547C2463.76 1547 2406 1604.76 2406 1676 2406 1747.24 2463.76 1805 2535 1805 2606.24 1805 2664 1747.24 2664 1676 2664 1604.76 2606.24 1547 2535 1547Z" fill="#FF3D00" fill-rule="evenodd"/><path d="M2406 1289 2303 1444 2509 1444Z" fill="#84FFFF" fill-rule="evenodd"/></g></svg>